<?xml version="1.0" standalone="no"?>
<!DOCTYPE svg PUBLIC "-//W3C//DTD SVG 20010904//EN"
 "http://www.w3.org/TR/2001/REC-SVG-20010904/DTD/svg10.dtd">
<svg version="1.0" xmlns="http://www.w3.org/2000/svg"
 width="1600.000000pt" height="1600.000000pt" viewBox="0 0 1600.000000 1600.000000"
 preserveAspectRatio="xMidYMid meet">

<g transform="translate(0.000000,1600.000000) scale(0.100000,-0.100000)"
fill="#000000" stroke="none">
<path d="M0 8000 l0 -8000 8000 0 8000 0 0 8000 0 8000 -8000 0 -8000 0 0
-8000z m15030 6845 l0 -165 -7020 0 -7020 0 0 165 0 165 7020 0 7020 0 0 -165z
m-6515 -644 c448 -60 813 -174 1274 -397 248 -120 331 -148 414 -141 109 9
172 40 257 126 86 86 149 200 196 354 l26 87 109 0 108 0 5 -42 c3 -24 10
-117 16 -208 21 -343 160 -2447 163 -2487 l5 -43 -92 0 -92 0 -67 200 c-288
854 -674 1410 -1222 1758 -331 210 -718 341 -1129 381 -162 16 -508 14 -666
-5 -322 -37 -603 -120 -892 -264 -308 -154 -543 -338 -755 -590 -422 -502
-697 -1186 -817 -2030 -75 -530 -92 -1212 -41 -1706 76 -744 310 -1416 653
-1872 259 -346 577 -610 965 -800 460 -226 931 -323 1497 -309 478 12 813 89
1195 277 263 128 440 258 699 510 223 218 471 506 680 793 75 102 80 107 100
94 12 -8 53 -33 91 -57 39 -23 72 -44 73 -45 2 -2 -38 -72 -89 -157 -395 -656
-865 -1156 -1379 -1465 -375 -226 -856 -389 -1315 -447 -294 -37 -689 -48
-976 -26 -1142 88 -2033 548 -2700 1395 -626 794 -933 1762 -906 2860 18 730
172 1376 476 1991 219 445 460 784 796 1120 295 296 574 501 946 699 520 275
1041 420 1684 469 136 10 566 -4 710 -23z m1685 -3156 l0 -125 -207 0 c-309 0
-460 -21 -610 -84 -153 -65 -298 -179 -359 -284 -54 -92 -91 -234 -121 -467
-15 -116 -17 -320 -20 -1897 l-4 -1766 -22 -5 c-180 -45 -660 -57 -902 -23
-125 17 -287 47 -350 64 l-30 8 -6 1740 c-5 1548 -8 1755 -23 1889 -36 318
-71 419 -184 533 -114 114 -323 220 -517 262 -83 19 -143 23 -352 27 l-253 5
0 124 0 124 1980 0 1980 0 0 -125z m-1320 -5862 c0 -657 -26 -1027 -101 -1423
-124 -653 -411 -1172 -874 -1579 -323 -284 -623 -426 -1050 -498 -154 -25
-538 -25 -675 1 -323 60 -526 157 -719 341 -158 150 -250 300 -297 481 -23 91
-25 112 -21 249 7 215 48 340 148 450 254 277 688 313 940 77 113 -105 223
-293 378 -646 125 -283 173 -359 271 -431 59 -43 154 -69 219 -60 184 26 357
231 416 493 49 218 48 172 52 1568 l4 1312 372 5 c391 5 532 16 772 62 66 12
130 23 143 24 l22 1 0 -427z m6150 -4078 l0 -165 -7020 0 -7020 0 0 165 0 165
7020 0 7020 0 0 -165z"/>
</g>
</svg>  
